<?xml version="1.0" standalone="no"?>
<!DOCTYPE svg PUBLIC "-//W3C//DTD SVG 20010904//EN"
 "http://www.w3.org/TR/2001/REC-SVG-20010904/DTD/svg10.dtd">
<svg version="1.0" xmlns="http://www.w3.org/2000/svg"
 width="178.000000pt" height="198.000000pt" viewBox="0 0 178.000000 198.000000"
 preserveAspectRatio="xMidYMid meet">

<g transform="translate(0.000000,198.000000) scale(0.100000,-0.100000)"
fill="#000000" stroke="none">
<path d="M734 1644 c-37 -18 -54 -51 -54 -104 l0 -40 -87 0 c-70 0 -95 -4
-121 -20 -50 -31 -72 -75 -72 -147 l0 -63 495 0 495 0 0 53 c-1 67 -29 131
-72 157 -26 16 -50 20 -115 20 l-83 0 0 38 c0 46 -31 99 -66 112 -43 17 -284
12 -320 -6z m304 -66 c7 -7 12 -27 12 -45 l0 -33 -150 0 -150 0 0 38 c0 21 3
42 7 45 12 13 268 8 281 -5z"/>
<path d="M432 820 l3 -420 38 -37 37 -38 384 0 384 0 27 25 c54 50 55 57 55
490 l0 400 -465 0 -466 0 3 -420z m222 298 c14 -19 16 -68 16 -333 0 -360 1
-355 -79 -355 -26 0 -52 5 -59 12 -16 16 -17 650 -2 679 16 29 103 27 124 -3z
m201 0 c13 -20 15 -66 15 -328 -1 -349 -2 -353 -67 -358 -23 -2 -51 2 -63 8
-20 10 -20 19 -20 343 0 246 3 336 12 345 7 7 33 12 59 12 38 0 51 -5 64 -22z
m200 -2 c13 -20 15 -69 14 -329 -1 -208 -5 -313 -13 -329 -9 -18 -21 -24 -60
-26 -26 -2 -54 2 -62 9 -19 16 -21 668 -2 687 7 7 33 12 60 12 39 0 50 -4 63
-24z m194 10 c16 -19 16 -663 0 -682 -13 -16 -82 -18 -110 -4 -18 10 -19 25
-19 345 0 308 1 335 18 344 25 15 98 13 111 -3z"/>
</g>
</svg>
